<svg width="100" height="100" viewBox="0 0 100 100" fill="none" xmlns="http://www.w3.org/2000/svg">
<rect width="100" height="100" rx="18" fill="#353647"/>
<path fill-rule="evenodd" clip-rule="evenodd" d="M54.4082 33.4348L50.2517 29.2905L51.4707 28.0716C53.5501 26.0239 56.0708 25 59.0279 25C62.0191 25 64.5544 26.0409 66.6338 28.1204L80.4319 41.9184C82.5113 43.9979 83.5522 46.5186 83.5522 49.4756C83.5522 52.4668 82.5113 55.0021 80.4319 57.0816L66.6338 70.8796C64.5544 72.9591 62.0191 74 59.0279 74C56.0708 74 53.5501 72.9591 51.4707 70.8796L37.6726 57.0816C35.5932 55.0021 34.5522 52.4668 34.5522 49.4756C34.5522 46.5186 35.5761 43.9979 37.6239 41.9184L44.0353 35.507L48.1918 39.6634L41.8169 46.0627C40.8735 47.0061 40.403 48.1421 40.403 49.4756C40.403 50.8408 40.8735 51.9939 41.8169 52.9373L50.2517 61.3721L54.396 65.5164L55.6149 66.7353C55.7124 66.8328 55.8173 66.9303 55.9318 67.0279C56.8095 67.7763 57.8407 68.1493 59.0279 68.1493C60.2468 68.1493 61.2877 67.7763 62.1483 67.0279C62.2458 66.9303 62.3433 66.8328 62.4408 66.7353L76.2876 52.8886C77.231 51.9793 77.7015 50.8408 77.7015 49.4756C77.7015 48.1421 77.231 47.0061 76.2876 46.0627L62.4896 32.2647C61.5461 31.3212 60.393 30.8507 59.0279 30.8507C57.6944 30.8507 56.5413 31.3212 55.5662 32.2647L54.4082 33.4348Z" fill="#FCB604"/>
<path fill-rule="evenodd" clip-rule="evenodd" d="M50.2517 61.3721L58.7353 52.8886C59.6788 51.9793 60.1493 50.8408 60.1493 49.4756C60.1493 48.1421 59.6788 47.0061 58.7353 46.0627L44.9373 32.2647C43.9939 31.3212 42.8408 30.8507 41.4756 30.8507C40.1421 30.8507 39.0061 31.3212 38.0627 32.2647L24.2647 46.0627C23.3212 47.0061 22.8507 48.1421 22.8507 49.4756C22.8507 50.8408 23.3212 51.9939 24.2647 52.9373L38.0627 66.7353C38.1602 66.8328 38.265 66.9303 38.3796 67.0279C39.2572 67.7763 40.2884 68.1493 41.4756 68.1493C42.3947 68.1493 43.2138 67.9372 43.9378 67.5154L48.1308 71.6963C47.9285 71.8669 47.7164 72.0303 47.497 72.1838C45.7491 73.3954 43.7428 74 41.4756 74C38.5186 74 35.9979 72.9591 33.9184 70.8796L20.1204 57.0816C18.0409 55.0021 17 52.4668 17 49.4756C17 46.5186 18.0239 43.9979 20.0716 41.9184L33.9184 28.0716C35.9979 26.0239 38.5186 25 41.4756 25C44.4668 25 47.0021 26.0409 49.0816 28.1204L50.2517 29.2905L54.4082 33.4348H54.396L62.8796 41.9184C64.9591 43.9979 66 46.5186 66 49.4756C66 52.4668 64.9591 55.0021 62.8796 57.0816L54.396 65.5164L50.2517 61.3721Z" fill="#EFF1F8"/>
</svg>
