<svg width="1080" height="185" viewBox="0 0 1080 185" fill="none" xmlns="http://www.w3.org/2000/svg">
<path d="M96.5627 57.9203C95.9064 51.3023 93.0896 46.1611 88.1124 42.4965C83.1353 38.832 76.3805 36.9998 67.8482 36.9998C62.0506 36.9998 57.1555 37.8202 53.1628 39.461C49.1701 41.0471 46.1073 43.2623 43.9742 46.1064C41.8958 48.9505 40.8566 52.1774 40.8566 55.7872C40.7472 58.7954 41.3762 61.4208 42.7436 63.6632C44.1656 65.9057 46.1073 67.8473 48.5685 69.4881C51.0297 71.0743 53.8738 72.469 57.1008 73.6723C60.3278 74.8208 63.7735 75.8053 67.438 76.6258L82.5336 80.2356C89.8627 81.8764 96.5901 84.0642 102.716 86.7989C108.842 89.5336 114.147 92.8973 118.632 96.89C123.117 100.883 126.59 105.586 129.051 111.001C131.567 116.416 132.852 122.624 132.907 129.624C132.852 139.907 130.227 148.822 125.031 156.37C119.89 163.863 112.451 169.688 102.716 173.845C93.0349 177.947 81.3577 179.998 67.6841 179.998C54.12 179.998 42.306 177.92 32.2423 173.763C22.2332 169.606 14.4119 163.453 8.77843 155.303C3.19961 147.099 0.273472 136.954 0 124.866H34.3753C34.7582 130.5 36.3717 135.203 39.2158 138.977C42.1146 142.696 45.9705 145.513 50.7836 147.427C55.6514 149.287 61.1482 150.217 67.2739 150.217C73.2903 150.217 78.5136 149.342 82.9438 147.592C87.4288 145.841 90.9018 143.407 93.3631 140.29C95.8243 137.172 97.055 133.59 97.055 129.542C97.055 125.769 95.9337 122.596 93.6913 120.026C91.5035 117.455 88.2765 115.267 84.0104 113.462C79.7989 111.657 74.6303 110.017 68.5046 108.54L50.2093 103.946C36.0435 100.5 24.8585 95.1124 16.6544 87.7834C8.45026 80.4544 4.37554 70.582 4.43024 58.1664C4.37554 47.9933 7.08291 39.1055 12.5523 31.503C18.0765 23.9005 25.6516 17.9662 35.2778 13.7C44.904 9.43386 55.8428 7.30078 68.0943 7.30078C80.5646 7.30078 91.4488 9.43386 100.747 13.7C110.1 17.9662 117.374 23.9005 122.57 31.503C127.766 39.1055 130.446 47.9113 130.61 57.9203H96.5627Z" fill="#353647"/>
<path d="M223.173 51.6031V77.8564H147.285V51.6031H223.173ZM164.513 21.4119H199.463V138.895C199.463 142.122 199.955 144.638 200.94 146.443C201.924 148.193 203.292 149.424 205.042 150.135C206.847 150.846 208.925 151.201 211.277 151.201C212.918 151.201 214.559 151.065 216.2 150.791C217.84 150.463 219.098 150.217 219.973 150.053L225.47 176.06C223.72 176.607 221.259 177.236 218.087 177.947C214.914 178.713 211.058 179.177 206.519 179.342C198.096 179.67 190.712 178.549 184.368 175.978C178.078 173.407 173.183 169.415 169.682 164C166.182 158.585 164.459 151.748 164.513 143.489V21.4119Z" fill="#353647"/>
<path d="M302.015 180.08C289.052 180.08 277.895 177.455 268.542 172.204C259.244 166.899 252.079 159.406 247.047 149.725C242.015 139.989 239.499 128.476 239.499 115.185C239.499 102.223 242.015 90.8463 247.047 81.056C252.079 71.2657 259.162 63.6359 268.296 58.1664C277.484 52.697 288.259 49.9623 300.62 49.9623C308.934 49.9623 316.673 51.3023 323.838 53.9823C331.058 56.6077 337.347 60.573 342.707 65.8783C348.122 71.1837 352.334 77.8564 355.342 85.8964C358.35 93.8818 359.854 103.235 359.854 113.955V123.553H253.446V101.894H326.955C326.955 96.8626 325.862 92.405 323.674 88.5218C321.486 84.6385 318.45 81.6029 314.567 79.4152C310.739 77.1727 306.281 76.0515 301.194 76.0515C295.889 76.0515 291.185 77.2821 287.083 79.7433C283.036 82.1499 279.864 85.4042 277.567 89.5063C275.269 93.5536 274.093 98.0659 274.039 103.043V123.635C274.039 129.871 275.187 135.258 277.484 139.798C279.836 144.337 283.145 147.838 287.411 150.299C291.678 152.76 296.737 153.991 302.589 153.991C306.472 153.991 310.028 153.444 313.255 152.35C316.481 151.256 319.244 149.615 321.541 147.427C323.838 145.24 325.588 142.56 326.791 139.387L359.116 141.52C357.475 149.287 354.111 156.069 349.025 161.867C343.993 167.61 337.484 172.095 329.499 175.322C321.568 178.494 312.407 180.08 302.015 180.08Z" fill="#353647"/>
<path d="M382.661 177.619V51.6031H416.545V73.5902H417.857C420.154 65.7689 424.01 59.862 429.425 55.8693C434.84 51.8219 441.075 49.7982 448.131 49.7982C449.881 49.7982 451.768 49.9076 453.791 50.1264C455.815 50.3452 457.593 50.646 459.124 51.0288V82.0405C457.483 81.5482 455.213 81.1107 452.315 80.7278C449.416 80.345 446.763 80.1535 444.357 80.1535C439.215 80.1535 434.621 81.2748 430.574 83.5172C426.581 85.705 423.409 88.7679 421.057 92.7059C418.76 96.6439 417.611 101.183 417.611 106.325V177.619H382.661Z" fill="#353647"/>
<path d="M528.757 180.08C515.794 180.08 504.637 177.455 495.284 172.204C485.986 166.899 478.821 159.406 473.789 149.725C468.757 139.989 466.241 128.476 466.241 115.185C466.241 102.223 468.757 90.8463 473.789 81.056C478.821 71.2657 485.904 63.6359 495.038 58.1664C504.226 52.697 515.001 49.9623 527.362 49.9623C535.676 49.9623 543.415 51.3023 550.58 53.9823C557.799 56.6077 564.089 60.573 569.449 65.8783C574.864 71.1837 579.075 77.8564 582.084 85.8964C585.092 93.8818 586.596 103.235 586.596 113.955V123.553H480.188V101.894H553.697C553.697 96.8626 552.603 92.405 550.416 88.5218C548.228 84.6385 545.192 81.6029 541.309 79.4152C537.48 77.1727 533.023 76.0515 527.936 76.0515C522.631 76.0515 517.927 77.2821 513.825 79.7433C509.778 82.1499 506.606 85.4042 504.308 89.5063C502.011 93.5536 500.835 98.0659 500.781 103.043V123.635C500.781 129.871 501.929 135.258 504.226 139.798C506.578 144.337 509.887 147.838 514.153 150.299C518.419 152.76 523.479 153.991 529.331 153.991C533.214 153.991 536.769 153.444 539.996 152.35C543.223 151.256 545.985 149.615 548.283 147.427C550.58 145.24 552.33 142.56 553.533 139.387L585.858 141.52C584.217 149.287 580.853 156.069 575.766 161.867C570.735 167.61 564.226 172.095 556.241 175.322C548.31 178.494 539.149 180.08 528.757 180.08Z" fill="#353647"/>
<path d="M881.07 51.604V77.8573H805.182V51.604H881.07ZM822.411 21.4128H857.36V138.896C857.36 142.123 857.852 144.639 858.837 146.444C859.821 148.194 861.189 149.425 862.939 150.136C864.744 150.847 866.822 151.202 869.174 151.202C870.815 151.202 872.456 151.066 874.097 150.792C875.737 150.464 876.995 150.218 877.871 150.054L883.367 176.061C881.617 176.608 879.156 177.237 875.984 177.948C872.811 178.713 868.955 179.178 864.416 179.342C855.993 179.671 848.609 178.549 842.265 175.979C835.975 173.408 831.08 169.415 827.579 164.001C824.079 158.586 822.356 151.749 822.411 143.49V21.4128Z" fill="#353647"/>
<path d="M903.837 177.62V51.604H938.786V177.62H903.837ZM921.393 35.3598C916.198 35.3598 911.74 33.637 908.021 30.1912C904.356 26.6908 902.524 22.5067 902.524 17.6389C902.524 12.8258 904.356 8.69639 908.021 5.25065C911.74 1.75022 916.198 0 921.393 0C926.589 0 931.02 1.75022 934.684 5.25065C938.403 8.69639 940.263 12.8258 940.263 17.6389C940.263 22.5067 938.403 26.6908 934.684 30.1912C931.02 33.637 926.589 35.3598 921.393 35.3598Z" fill="#353647"/>
<path d="M1023.72 180.081C1010.81 180.081 999.709 177.346 990.411 171.877C981.167 166.353 974.057 158.695 969.08 148.905C964.158 139.115 961.696 127.848 961.696 115.104C961.696 102.196 964.185 90.8745 969.162 81.1389C974.194 71.3487 981.332 63.7188 990.575 58.2494C999.818 52.7253 1010.81 49.9632 1023.56 49.9632C1034.55 49.9632 1044.18 51.9595 1052.43 55.9522C1060.69 59.9449 1067.23 65.5511 1072.04 72.7707C1076.86 79.9904 1079.51 88.468 1080 98.2035H1047.02C1046.09 91.9137 1043.63 86.8545 1039.64 83.0259C1035.7 79.1426 1030.53 77.2009 1024.13 77.2009C1018.72 77.2009 1013.98 78.6777 1009.94 81.6312C1005.94 84.53 1002.83 88.7688 1000.58 94.3476C998.341 99.9264 997.22 106.681 997.22 114.612C997.22 122.652 998.314 129.489 1000.5 135.122C1002.74 140.756 1005.89 145.049 1009.94 148.003C1013.98 150.956 1018.72 152.433 1024.13 152.433C1028.12 152.433 1031.7 151.612 1034.88 149.972C1038.1 148.331 1040.76 145.952 1042.84 142.834C1044.97 139.662 1046.36 135.861 1047.02 131.43H1080C1079.45 141.056 1076.83 149.534 1072.12 156.863C1067.48 164.137 1061.05 169.826 1052.84 173.928C1044.64 178.03 1034.93 180.081 1023.72 180.081Z" fill="#353647"/>
<path fill-rule="evenodd" clip-rule="evenodd" d="M701.276 58.4748L710.262 49.4882H710.396C714.601 45.3772 719.604 43.3184 725.419 43.3184C731.407 43.3184 736.504 45.4175 740.709 49.6224L790.068 98.8473V98.9815C794.179 103.186 796.238 108.189 796.238 114.004C796.238 119.993 794.179 125.089 790.068 129.294L740.709 178.653C736.504 182.764 731.407 184.823 725.419 184.823C719.604 184.823 714.601 182.764 710.396 178.653H710.262L661.037 129.294C656.832 125.089 654.733 119.993 654.733 114.004C654.733 108.189 656.792 103.186 660.903 98.9815V98.8473L681.425 78.3258L692.859 89.7602L672.438 110.248V110.114C671.365 111.187 670.829 112.481 670.829 114.004C670.829 115.526 671.365 116.82 672.438 117.894L701.276 146.865L712.677 158.266L721.529 167.118C721.576 167.165 721.616 167.206 721.663 167.253C722.689 168.238 723.943 168.728 725.419 168.728C726.941 168.728 728.235 168.238 729.308 167.253L778.667 117.894C779.653 116.82 780.143 115.526 780.143 114.004C780.143 112.528 779.653 111.274 778.667 110.248L729.308 61.0233C728.235 59.9502 726.941 59.4137 725.419 59.4137C723.896 59.4137 722.602 59.9502 721.529 61.0233L712.677 69.8757L701.276 58.4748Z" fill="#FCB604"/>
<path fill-rule="evenodd" clip-rule="evenodd" d="M712.679 158.266L701.278 146.865L730.384 117.894C731.37 116.82 731.86 115.526 731.86 114.004C731.86 112.528 731.37 111.274 730.384 110.248L681.025 61.0233C679.952 59.9502 678.658 59.4137 677.135 59.4137C675.613 59.4137 674.319 59.9502 673.246 61.0233H673.38L624.155 110.248V110.114C623.082 111.187 622.545 112.481 622.545 114.004C622.545 115.526 623.082 116.82 624.155 117.894L673.38 167.253C674.406 168.238 675.66 168.728 677.135 168.728C678.658 168.728 679.905 168.238 680.891 167.253L681.427 166.716L692.895 178.184L692.426 178.653C688.449 182.543 683.674 184.602 678.108 184.823C677.772 184.823 677.451 184.823 677.135 184.823C671.321 184.823 666.318 182.764 662.113 178.653H661.979L612.754 129.294C608.549 125.089 606.45 119.993 606.45 114.004C606.45 108.189 608.509 103.186 612.62 98.9815V98.8473L661.979 49.4882H662.113C666.318 45.3772 671.321 43.3184 677.135 43.3184C683.124 43.3184 688.221 45.4175 692.426 49.6224L701.278 58.4748L712.679 69.8757L741.785 98.8473V98.9815C745.896 103.186 747.955 108.189 747.955 114.004C747.955 119.993 745.896 125.089 741.785 129.294L712.679 158.266Z" fill="#353647"/>
</svg>
